<?xml version="1.0" standalone="no"?>
<!DOCTYPE svg PUBLIC "-//W3C//DTD SVG 20010904//EN"
 "http://www.w3.org/TR/2001/REC-SVG-20010904/DTD/svg10.dtd">
<svg version="1.0" xmlns="http://www.w3.org/2000/svg"
 width="426.877780pt" height="252.620078pt" viewBox="0 0 426.877780 252.620078"
 preserveAspectRatio="xMidYMid meet">
<metadata>
Created by potrace 1.10, written by Peter Selinger 2001-2011
</metadata>
<g transform="translate(-43.000000,280.486335) scale(0.100000,-0.100000)"
fill="#000000" stroke="none">
<path d="M4296 2795 c-8 -8 -17 -11 -20 -7 -5 8 -24 7 -97 -4 -22 -4 -39 -1
-43 5 -9 14 -86 15 -86 1 0 -6 -51 -10 -134 -10 -83 0 -137 -4 -141 -10 -5 -8
-11 -8 -19 -1 -18 15 -82 17 -100 2 -8 -7 -32 -11 -54 -10 -26 2 -51 -4 -76
-19 -30 -18 -41 -20 -52 -11 -11 9 -20 9 -39 -1 -13 -7 -31 -10 -40 -6 -9 3
-18 0 -21 -9 -5 -12 -10 -12 -27 -3 -45 24 -85 17 -118 -20 -28 -32 -34 -34
-73 -29 -30 4 -49 2 -64 -9 -13 -9 -31 -13 -43 -9 -13 5 -31 -2 -54 -20 -28
-21 -42 -25 -69 -20 -20 4 -36 2 -40 -4 -4 -6 -18 -11 -31 -11 -13 0 -27 -4
-30 -10 -3 -5 -17 -10 -30 -10 -13 0 -27 -4 -30 -10 -3 -5 -17 -10 -30 -10
-13 0 -27 -4 -30 -10 -3 -5 -21 -10 -38 -10 -18 0 -40 -7 -51 -15 -16 -12 -22
-12 -42 2 -23 14 -24 14 -24 -5 0 -15 -5 -19 -20 -15 -14 4 -20 0 -20 -11 0
-11 -9 -16 -29 -16 -17 0 -33 -5 -36 -11 -4 -6 -21 -9 -38 -7 -26 2 -33 -1
-35 -18 -2 -17 -12 -22 -48 -27 -25 -2 -53 -12 -64 -22 -11 -10 -28 -15 -39
-12 -18 4 -153 -60 -231 -110 -19 -13 -45 -23 -57 -23 -12 0 -24 -4 -28 -9
-11 -19 -96 -71 -116 -71 -12 0 -19 -7 -19 -20 0 -15 -7 -20 -28 -20 -19 0
-40 -12 -67 -40 -21 -22 -45 -40 -52 -40 -7 0 -13 -8 -13 -19 0 -10 -9 -21
-20 -24 -11 -3 -20 -12 -20 -20 0 -8 -9 -17 -20 -20 -11 -3 -20 -12 -20 -21 0
-9 -7 -16 -15 -16 -9 0 -18 -7 -22 -17 -3 -9 -24 -32 -45 -51 -21 -19 -38 -41
-38 -48 0 -8 -7 -22 -15 -31 -68 -79 -85 -102 -85 -110 0 -6 -9 -18 -21 -29
-11 -10 -18 -26 -16 -36 3 -9 -2 -23 -10 -30 -20 -16 -63 -103 -63 -127 0 -11
-4 -23 -10 -26 -5 -3 -10 -17 -10 -29 0 -13 -10 -30 -21 -38 -20 -12 -20 -16
-8 -37 12 -19 12 -23 -2 -31 -11 -6 -15 -18 -11 -35 2 -15 0 -25 -7 -25 -7 0
-11 -25 -11 -70 0 -60 -3 -70 -17 -71 -32 -1 -78 -34 -93 -67 -8 -17 -20 -32
-26 -32 -20 0 -72 -30 -78 -45 -3 -8 -16 -15 -28 -15 -13 0 -38 -9 -57 -21
-18 -11 -40 -18 -48 -15 -9 4 -27 -6 -43 -24 -16 -17 -44 -37 -62 -45 -19 -7
-40 -20 -47 -28 -6 -8 -23 -18 -36 -21 -14 -4 -25 -11 -25 -17 0 -5 -12 -15
-27 -20 -30 -11 -103 -95 -103 -118 0 -8 8 -19 17 -26 14 -11 23 -9 52 11 45
30 55 30 80 -3 18 -22 25 -25 44 -15 12 6 31 13 42 15 11 2 19 8 18 14 -1 5
11 23 27 38 17 16 30 37 30 47 0 10 7 18 15 18 9 0 27 12 40 26 46 49 115 70
143 42 16 -16 57 19 42 37 -11 13 -3 25 17 25 16 0 53 -36 53 -51 0 -18 39
-95 55 -109 8 -7 15 -18 15 -25 0 -19 89 -104 131 -126 21 -10 54 -30 75 -44
20 -14 51 -25 68 -25 17 0 42 -9 56 -20 14 -11 39 -20 57 -20 29 0 93 -28 118
-51 5 -5 23 -9 40 -9 16 0 45 -9 64 -21 19 -11 42 -18 52 -16 10 3 27 -2 39
-10 15 -11 36 -14 66 -10 30 3 47 0 55 -9 17 -21 302 -20 319 1 7 9 21 13 34
9 14 -3 27 1 35 10 9 11 25 13 59 9 39 -4 50 -2 66 16 12 13 31 21 52 21 18 0
36 4 39 10 3 5 17 10 30 10 13 0 27 5 30 10 3 6 15 10 25 10 11 0 34 9 52 20
18 11 43 20 55 20 12 0 29 10 37 21 10 15 21 20 35 16 13 -3 24 1 30 10 5 10
16 14 29 11 12 -4 26 0 33 8 6 8 17 14 25 14 7 0 17 6 21 13 4 7 24 19 43 27
45 17 80 49 80 72 0 10 7 18 18 18 21 0 161 141 182 184 8 17 24 32 35 34 25
5 105 86 105 107 0 8 11 20 24 26 13 6 32 29 41 50 10 21 24 40 31 43 8 3 14
19 14 36 0 20 5 30 15 30 8 0 20 10 26 23 7 12 18 26 25 30 8 4 14 14 14 22 0
8 14 27 30 42 20 17 30 36 30 55 0 21 5 28 20 28 15 0 20 7 20 24 0 14 5 28
10 31 6 3 10 14 10 24 0 12 7 18 17 17 12 -1 19 7 21 24 2 14 12 34 21 45 10
11 25 37 35 57 9 20 21 40 26 43 6 3 19 25 30 49 10 23 26 49 35 56 9 7 13 20
10 28 -7 19 23 52 48 52 15 0 18 5 13 24 -4 15 0 28 9 36 8 7 15 19 15 26 0 8
7 14 15 14 18 0 19 12 3 28 -9 9 -8 16 5 30 39 43 127 187 127 208 0 14 15 35
40 55 23 19 40 42 40 54 0 38 12 65 29 65 25 0 33 11 19 28 -10 11 -9 17 2 26
8 6 25 30 38 53 19 36 21 45 10 62 -10 17 -10 23 0 33 11 11 18 8 36 -16 31
-38 47 -15 17 25 -30 40 -27 62 12 79 34 15 135 15 152 -1 12 -12 75 -12 75 1
0 6 8 10 18 10 10 0 29 11 41 24 17 18 22 33 19 67 -3 39 -6 44 -25 41 -12 -2
-24 2 -28 8 -9 15 -248 13 -263 -2 -10 -10 -19 -8 -41 5 -26 15 -31 16 -45 2z
m84 -55 c0 -5 -6 -10 -14 -10 -8 0 -17 -9 -21 -20 -3 -10 -19 -26 -35 -34 -25
-12 -31 -12 -41 0 -9 11 -8 14 5 14 9 0 22 5 29 10 61 50 77 59 77 40z m-326
-95 c6 -17 95 -22 112 -6 5 5 23 11 39 13 28 3 30 1 33 -33 2 -23 -2 -40 -12
-49 -9 -7 -16 -18 -16 -24 0 -7 -13 -25 -30 -41 -16 -16 -30 -35 -30 -42 0 -7
-7 -13 -16 -13 -9 0 -18 -9 -21 -20 -4 -13 -14 -20 -30 -20 -16 0 -27 -7 -30
-19 -3 -14 -15 -21 -37 -23 -24 -2 -32 -8 -34 -26 -2 -13 -13 -27 -26 -31 -12
-5 -28 -16 -36 -25 -7 -10 -41 -31 -76 -47 -35 -17 -68 -37 -75 -45 -6 -8 -17
-14 -23 -14 -7 0 -25 -13 -41 -30 -16 -16 -34 -30 -40 -30 -7 0 -20 -9 -30
-20 -10 -11 -24 -20 -31 -20 -7 0 -24 -13 -37 -30 -16 -18 -35 -30 -50 -30
-16 0 -40 -17 -71 -50 -26 -27 -52 -50 -57 -50 -6 0 -24 -10 -41 -21 -21 -15
-38 -20 -60 -15 -27 5 -30 4 -25 -16 8 -28 -9 -48 -40 -48 -17 0 -27 -7 -30
-21 -4 -15 -12 -20 -29 -16 -16 3 -31 -6 -54 -30 -17 -18 -36 -33 -41 -33 -5
0 -18 -9 -29 -20 -15 -15 -27 -18 -50 -13 -28 5 -32 2 -43 -26 -8 -21 -22 -34
-43 -41 -17 -6 -40 -20 -49 -30 -10 -11 -28 -20 -41 -20 -13 0 -25 -4 -29 -9
-9 -15 -116 -71 -135 -71 -9 0 -25 -9 -35 -20 -10 -11 -26 -20 -34 -19 -23 3
-53 -11 -83 -39 -14 -13 -32 -21 -38 -17 -6 4 -20 -1 -30 -10 -10 -9 -24 -14
-30 -10 -6 4 -20 -1 -30 -10 -26 -23 -109 -65 -130 -65 -9 0 -25 -9 -35 -20
-10 -11 -26 -20 -37 -20 -18 0 -23 -2 -83 -32 -17 -9 -44 -14 -61 -11 -18 3
-35 0 -38 -6 -4 -6 -22 -11 -41 -11 -19 0 -37 -4 -40 -10 -3 -5 -17 -10 -30
-10 -13 0 -27 -4 -30 -10 -3 -5 -32 -10 -64 -10 -40 0 -63 -5 -71 -15 -16 -19
-49 -19 -56 -1 -3 8 5 29 18 46 13 18 22 42 20 56 -2 16 1 24 12 24 9 0 16 7
16 15 0 8 -4 15 -10 15 -5 0 -10 12 -10 26 0 23 3 26 28 20 22 -5 24 -4 10 4
-24 15 -23 53 2 75 11 10 20 28 20 40 0 12 9 30 20 40 11 10 20 28 20 40 0 12
9 30 20 40 11 10 20 23 20 30 0 7 8 19 18 28 10 9 24 32 32 52 8 19 20 35 27
35 8 0 16 8 20 18 8 23 84 102 99 102 6 0 17 7 24 15 21 25 71 45 116 45 34 0
44 4 49 20 3 11 13 27 22 36 14 14 13 18 -13 45 -28 30 -86 41 -99 19 -3 -5
-17 -10 -30 -10 -13 0 -27 -4 -30 -10 -3 -5 -16 -10 -29 -10 -12 0 -35 -13
-51 -30 -16 -16 -34 -30 -41 -30 -16 0 -62 -49 -70 -74 -3 -10 -21 -32 -40
-48 -19 -17 -34 -40 -34 -52 0 -12 -16 -37 -35 -56 -35 -34 -105 -161 -105
-191 0 -9 -9 -24 -20 -34 -11 -10 -20 -28 -20 -41 0 -13 -5 -26 -10 -29 -6 -3
-10 -19 -10 -34 0 -30 -20 -81 -32 -81 -5 0 -8 -31 -8 -69 0 -62 -2 -69 -21
-74 -14 -4 -20 -11 -16 -21 9 -22 -7 -28 -29 -11 -27 20 -101 19 -112 -1 -5
-10 -14 -14 -21 -9 -9 5 -7 13 9 30 30 32 8 42 -30 15 l-31 -22 -44 34 c-46
35 -55 59 -31 91 8 10 12 26 9 36 -2 9 9 42 26 73 17 31 31 65 31 76 0 11 7
25 15 32 9 7 25 32 35 55 10 23 26 48 35 55 8 7 15 19 15 26 0 8 7 14 16 14 9
0 14 7 13 18 -4 30 18 68 60 104 24 20 41 44 41 56 0 15 7 22 28 24 21 2 28 9
30 31 2 20 9 27 24 27 12 0 39 21 66 50 34 38 52 50 74 50 15 0 28 4 28 9 0 9
52 44 106 71 17 8 39 21 48 29 26 22 107 61 126 61 10 0 23 7 30 15 18 22 69
45 100 45 15 0 35 9 45 20 10 11 26 20 36 20 10 0 33 8 51 18 18 10 47 22 63
26 17 4 38 15 47 23 10 9 26 13 39 10 12 -3 32 1 45 10 16 10 35 13 54 10 16
-4 32 -2 35 3 3 6 17 10 29 10 13 0 29 7 36 15 7 8 25 14 44 12 25 -2 32 2 34
21 3 22 26 30 37 12 6 -10 65 -2 80 11 5 5 18 9 30 9 11 0 28 7 38 14 9 7 28
11 41 9 13 -3 27 0 30 6 4 6 25 11 46 11 25 0 57 11 90 30 39 23 63 30 104 30
28 0 61 6 71 14 12 8 33 12 56 9 21 -3 39 -1 43 6 4 6 38 11 82 11 50 0 82 5
98 15 24 16 56 11 56 -8 0 -7 4 -7 12 1 7 7 20 12 30 12 10 0 29 7 43 16 21
14 24 14 34 -3 9 -16 13 -16 32 -5 18 12 23 12 30 0 7 -10 12 -11 29 0 11 6
47 12 80 12 45 0 62 4 66 15 4 8 12 15 19 15 7 0 15 -7 19 -15z m106 -306 c0
-5 -9 -19 -20 -32 -11 -12 -35 -47 -53 -77 -32 -54 -34 -55 -76 -53 -46 2 -62
10 -45 21 6 4 13 15 17 24 8 23 119 109 134 104 6 -3 13 5 16 16 5 19 27 17
27 -3z m-170 -218 c0 -17 -8 -34 -19 -42 -21 -16 -71 -102 -71 -123 0 -8 -7
-16 -15 -19 -8 -4 -21 -23 -30 -44 -9 -21 -25 -48 -36 -60 -14 -14 -19 -28
-15 -41 5 -15 1 -22 -14 -27 -12 -4 -26 -18 -32 -31 -6 -13 -15 -24 -20 -24
-4 0 -8 -11 -8 -23 0 -13 -9 -32 -20 -42 -11 -10 -20 -28 -20 -41 0 -12 -13
-33 -30 -47 -16 -14 -30 -34 -30 -45 0 -24 -26 -76 -45 -92 -8 -7 -15 -19 -15
-26 0 -8 -9 -19 -20 -26 -11 -7 -20 -20 -20 -29 0 -9 -18 -31 -40 -49 -29 -23
-40 -40 -40 -59 0 -19 -10 -34 -30 -49 -16 -13 -30 -31 -30 -42 0 -11 -7 -20
-15 -20 -9 0 -19 -8 -22 -17 -4 -10 -20 -28 -35 -41 -15 -13 -28 -31 -28 -39
0 -19 -46 -63 -66 -63 -8 0 -21 -15 -29 -34 -9 -22 -25 -37 -44 -44 -20 -7
-33 -20 -37 -36 -3 -14 -13 -26 -20 -26 -8 0 -17 -6 -20 -14 -10 -27 -105
-116 -123 -116 -20 0 -82 -32 -113 -57 -9 -8 -25 -14 -35 -12 -25 3 -84 -25
-108 -50 -10 -12 -26 -21 -34 -20 -20 3 -51 -10 -73 -29 -10 -8 -24 -12 -32
-9 -8 3 -20 -1 -27 -9 -7 -8 -19 -12 -27 -9 -8 3 -23 -2 -33 -11 -12 -10 -27
-14 -42 -10 -16 4 -29 0 -37 -9 -8 -9 -21 -13 -37 -9 -16 4 -30 0 -43 -11 -19
-17 -21 -17 -41 1 -21 19 -21 19 -43 -9 -25 -31 -38 -34 -57 -11 -10 13 -29
15 -94 12 -56 -2 -87 1 -97 10 -10 8 -35 11 -71 8 -41 -3 -59 -1 -68 10 -6 8
-20 12 -30 9 -9 -3 -20 -1 -23 4 -13 20 -64 38 -95 33 -19 -3 -38 1 -49 10
-23 20 -95 53 -107 49 -15 -4 -115 30 -115 40 0 5 -31 23 -69 40 -51 23 -71
38 -75 55 -4 13 -12 24 -19 24 -16 1 -57 35 -57 49 0 5 -12 21 -26 35 -23 21
-26 29 -20 64 4 30 2 41 -9 46 -21 8 -19 40 5 61 20 19 50 14 50 -7 0 -8 -7
-24 -16 -37 -16 -23 -16 -23 7 -16 13 4 26 10 29 14 20 25 60 31 194 31 86 0
147 4 151 10 3 5 41 10 84 10 42 0 82 5 88 11 12 12 87 19 102 10 21 -13 -18
-51 -52 -51 -46 -1 -76 -28 -79 -72 -1 -28 3 -41 23 -57 13 -11 34 -20 46 -21
12 0 25 -4 28 -10 3 -5 16 -10 29 -10 13 0 31 -9 41 -20 11 -12 31 -20 51 -20
18 0 36 -4 39 -10 3 -5 17 -10 31 -10 13 0 24 -4 24 -10 0 -5 15 -10 34 -10
19 0 38 -4 41 -10 8 -13 172 -13 180 0 3 6 34 10 68 10 51 0 64 3 75 20 7 11
22 20 35 20 22 0 147 112 147 132 0 5 9 23 21 39 11 17 18 37 15 46 -4 8 -1
22 5 29 15 18 -17 32 -34 15 -6 -6 -20 -11 -30 -11 -14 0 -18 -5 -14 -20 4
-14 0 -20 -12 -20 -10 0 -28 -12 -42 -26 -34 -36 -84 -58 -118 -51 -20 4 -33
1 -42 -9 -7 -9 -21 -13 -31 -10 -11 2 -22 -2 -25 -10 -7 -18 -129 -20 -135 -2
-3 7 -21 11 -47 10 -30 -2 -50 3 -74 20 -17 12 -42 21 -54 20 -31 -5 -122 39
-123 59 -1 56 51 92 126 88 39 -3 50 1 65 20 15 18 26 22 48 18 19 -4 33 -1
41 8 7 8 19 15 26 15 8 0 14 3 14 8 0 4 12 13 27 20 30 13 123 17 123 4 0 -12
70 -44 105 -49 17 -2 45 -3 64 -3 18 0 38 -4 45 -9 18 -15 262 -17 280 -2 9 8
22 11 30 8 8 -3 20 1 27 9 7 8 19 14 28 13 9 0 26 2 38 6 18 6 21 13 17 30 -5
19 -1 23 30 29 20 4 36 11 36 16 0 5 24 37 54 70 54 60 54 61 39 90 -17 35
-33 38 -58 10 -10 -11 -29 -20 -42 -20 -13 0 -26 -7 -30 -15 -9 -25 -62 -48
-78 -35 -11 9 -16 7 -25 -10 -6 -11 -8 -25 -5 -30 3 -5 -12 -9 -33 -8 -22 0
-49 -5 -61 -12 -17 -9 -26 -9 -37 1 -10 8 -38 10 -88 6 -68 -5 -76 -4 -96 18
-22 24 -20 45 4 45 7 0 25 9 39 20 14 11 32 20 40 20 8 0 34 10 58 23 31 16
43 19 46 10 3 -7 9 -13 15 -13 7 0 6 5 -1 14 -15 18 14 50 40 43 10 -3 24 1
30 9 19 23 111 69 130 66 10 -2 28 11 45 33 23 31 32 36 63 33 34 -3 36 -5 36
-39 0 -37 18 -69 39 -69 19 0 121 58 141 80 10 11 28 20 41 20 13 0 28 9 33
19 8 15 22 19 62 19 29 1 57 6 62 11 6 6 19 11 29 11 9 0 33 9 53 20 20 11 42
20 51 20 16 0 65 28 76 44 4 6 3 15 -2 21 -6 7 -4 19 6 33 13 19 13 22 -4 31
-10 5 -29 7 -41 4 -17 -4 -29 2 -51 28 -15 19 -31 31 -35 27 -5 -4 -2 -15 5
-23 20 -24 2 -34 -63 -37 -35 -1 -58 -7 -61 -15 -3 -7 -14 -13 -25 -13 -13 0
-20 9 -23 28 -3 25 -1 28 18 24 12 -2 25 1 28 7 4 6 16 11 27 11 10 0 19 5 19
11 0 15 38 46 86 69 22 10 47 26 54 35 7 8 26 15 41 15 25 0 30 5 36 30 3 17
12 30 20 30 21 0 83 50 83 66 0 9 12 14 34 14 25 0 36 5 40 18 5 16 48 37 84
41 7 0 12 -11 12 -28z m-600 -342 c0 -25 22 -49 47 -49 23 -1 59 -27 49 -37
-4 -4 -16 -2 -26 5 -27 17 -30 15 -30 -14 0 -22 -4 -25 -27 -23 -30 3 -97 -23
-120 -47 -8 -8 -20 -14 -27 -14 -8 0 -19 -7 -26 -15 -18 -21 -61 -15 -92 14
-16 13 -28 28 -28 31 0 15 49 59 91 82 24 14 62 37 83 52 43 29 56 32 74 14 9
-9 12 -8 12 5 0 9 5 17 10 17 6 0 10 -9 10 -21z m120 -39 c0 -5 -9 -10 -20
-10 -11 0 -20 5 -20 10 0 6 9 10 20 10 11 0 20 -4 20 -10z m-1030 -453 c0 -13
16 -41 35 -63 19 -21 35 -42 35 -46 0 -10 -24 -10 -34 -1 -4 4 -32 8 -62 9
-66 2 -101 23 -101 59 0 29 35 50 74 42 15 -3 20 0 16 10 -3 8 2 13 16 13 15
0 21 -6 21 -23z m46 -24 c-11 -11 -19 6 -11 24 8 17 8 17 12 0 3 -10 2 -21 -1
-24z m-1252 -175 c33 -29 53 -65 22 -39 -9 8 -28 10 -50 6 -44 -9 -59 15 -30
45 11 10 20 19 21 19 0 1 17 -13 37 -31z m326 -3 c-1 -6 -10 -13 -20 -17 -18
-6 -18 -5 -7 12 12 20 30 23 27 5z m-532 -167 c18 -18 15 -28 -8 -28 -11 0
-20 2 -20 4 0 2 -3 11 -6 20 -7 19 16 22 34 4z"/>
<path d="M4030 2601 c0 -5 7 -17 16 -26 13 -12 20 -13 28 -5 8 8 6 15 -8 26
-23 16 -36 18 -36 5z"/>
<path d="M3068 2225 c-16 -18 -28 -37 -28 -42 0 -5 -11 -20 -24 -32 -15 -14
-22 -30 -19 -41 4 -13 -5 -28 -26 -46 -19 -16 -31 -35 -31 -51 0 -15 -12 -34
-30 -50 -17 -14 -30 -33 -29 -42 3 -32 -1 -41 -21 -41 -13 0 -25 -11 -33 -27
-6 -15 -20 -36 -29 -45 -10 -10 -18 -22 -18 -27 0 -5 -10 -11 -21 -14 -17 -5
-20 -11 -16 -29 4 -13 0 -29 -9 -39 -14 -15 -13 -20 10 -45 16 -18 28 -25 33
-18 5 5 25 18 46 27 20 10 37 24 37 32 0 8 7 15 15 15 9 0 19 10 24 23 5 12
21 33 35 46 14 14 26 30 26 38 0 7 6 13 14 13 18 0 47 56 39 75 -3 9 4 18 20
24 24 9 41 41 38 73 -1 9 6 22 17 30 10 7 24 29 31 48 7 19 19 46 26 60 7 14
12 34 11 45 -1 23 -39 75 -52 74 -5 0 -21 -15 -36 -34z"/>
<path d="M2422 2100 c-7 -11 -21 -20 -32 -20 -16 0 -20 -7 -20 -30 0 -27 -3
-30 -30 -30 -30 0 -43 -24 -17 -33 9 -3 9 -9 -2 -30 -7 -14 -11 -32 -8 -40 3
-8 -1 -25 -10 -37 -20 -29 -53 -119 -53 -147 0 -12 -4 -25 -10 -28 -5 -3 -10
-21 -10 -40 0 -19 -4 -37 -10 -40 -5 -3 -10 -16 -10 -29 0 -12 -5 -27 -12 -34
-9 -9 -9 -15 0 -24 7 -7 12 -22 12 -33 0 -12 8 -29 19 -39 17 -16 21 -14 70
30 39 35 49 49 41 59 -8 9 -8 15 0 20 5 3 10 26 10 50 0 24 5 47 11 51 6 3 8
17 5 30 -4 16 0 29 16 44 19 18 21 23 10 41 -11 17 -11 24 1 37 24 29 51 96
48 120 -2 22 0 23 59 20 72 -3 88 9 86 69 -2 33 -5 38 -28 41 -14 2 -34 12
-44 23 -23 26 -75 25 -92 -1z"/>
<path d="M3170 1880 c0 -13 7 -20 20 -20 13 0 20 7 20 20 0 13 -7 20 -20 20
-13 0 -20 -7 -20 -20z"/>
<path d="M1987 1753 c-14 -13 -6 -33 13 -33 13 0 20 7 20 20 0 19 -20 27 -33
13z"/>
<path d="M2680 995 c0 -8 7 -15 15 -15 8 0 15 7 15 15 0 8 -7 15 -15 15 -8 0
-15 -7 -15 -15z"/>
<path d="M4630 1035 c0 -18 5 -25 19 -25 26 0 36 17 21 35 -19 23 -40 18 -40
-10z"/>
</g>
</svg>
